<svg xmlns="http://www.w3.org/2000/svg" viewBox="0 0 512 512" width="512" height="512">
  <defs>
    <radialGradient id="flameGradient" cx="50%" cy="70%" r="60%">
      <stop offset="0%" style="stop-color:#FFD700;stop-opacity:1" />
      <stop offset="30%" style="stop-color:#FFA500;stop-opacity:1" />
      <stop offset="60%" style="stop-color:#FF6B00;stop-opacity:1" />
      <stop offset="100%" style="stop-color:#DC143C;stop-opacity:1" />
    </radialGradient>
    <linearGradient id="forkGradient" x1="0%" y1="0%" x2="0%" y2="100%">
      <stop offset="0%" style="stop-color:#8B4513;stop-opacity:1" />
      <stop offset="100%" style="stop-color:#000000;stop-opacity:1" />
    </linearGradient>
  </defs>
  
  <!-- Flame shape -->
  <path d="M256 50 C 280 80, 300 120, 310 160 C 320 200, 330 240, 330 280 C 330 350, 300 400, 256 450 C 212 400, 182 350, 182 280 C 182 240, 192 200, 202 160 C 212 120, 232 80, 256 50 Z" fill="url(#flameGradient)"/>
  
  <!-- Inner flame highlight -->
  <path d="M256 100 C 270 120, 280 150, 285 180 C 290 210, 295 240, 295 270 C 295 310, 280 340, 256 370 C 232 340, 217 310, 217 270 C 217 240, 222 210, 227 180 C 232 150, 242 120, 256 100 Z" fill="#FFA500" opacity="0.6"/>
  
  <!-- Fork handle -->
  <rect x="240" y="280" width="32" height="180" rx="8" fill="url(#forkGradient)"/>
  
  <!-- Fork prongs -->
  <rect x="200" y="240" width="18" height="80" rx="9" fill="url(#forkGradient)"/>
  <rect x="228" y="240" width="18" height="80" rx="9" fill="url(#forkGradient)"/>
  <rect x="256" y="240" width="18" height="80" rx="9" fill="url(#forkGradient)"/>
  <rect x="284" y="240" width="18" height="80" rx="9" fill="url(#forkGradient)"/>
  
  <!-- Number 5 -->
  <text x="256" y="180" font-family="Arial, sans-serif" font-size="100" font-weight="bold" fill="#FFD700" text-anchor="middle" stroke="#8B4513" stroke-width="3">5</text>
</svg>
